<?xml version="1.0" encoding="UTF-8" standalone="no"?>
<!DOCTYPE svg PUBLIC "-//W3C//DTD SVG 1.1//EN" "http://www.w3.org/Graphics/SVG/1.1/DTD/svg11.dtd">
<svg width="100%" height="100%" viewBox="0 0 125 55" version="1.1" xmlns="http://www.w3.org/2000/svg" xmlns:xlink="http://www.w3.org/1999/xlink" xml:space="preserve" xmlns:serif="http://www.serif.com/" style="fill-rule:evenodd;clip-rule:evenodd;stroke-linejoin:round;stroke-miterlimit:2;">
    <g transform="matrix(0.503465,0,0,0.503465,96.8084,19.9349)">
        <path d="M0,30.052C6.719,30.052 12.18,35.514 12.18,42.233C12.18,48.974 6.719,54.415 0,54.415C-6.741,54.415 -12.183,48.974 -12.183,42.233C-12.183,35.514 -6.741,30.052 0,30.052M-151.519,30.052C-144.778,30.052 -139.337,35.514 -139.337,42.233C-139.337,48.974 -144.778,54.415 -151.519,54.415C-158.238,54.415 -163.68,48.974 -163.68,42.233C-163.68,35.514 -158.238,30.052 -151.519,30.052M-151.519,19.746C-139.09,19.746 -129.031,29.825 -129.031,42.233C-129.031,54.662 -139.09,64.721 -151.519,64.721C-163.927,64.721 -173.985,54.662 -173.985,42.233C-173.985,29.825 -163.927,19.746 -151.519,19.746M-123.528,-2.617L-123.528,-28.486L-136.596,-28.486C-139.563,-26.919 -145.417,-19.293 -147.169,-16.82C-149.003,-14.222 -154.549,-5.668 -154.733,-2.617L-123.528,-2.617ZM-75.75,-28.115L-75.75,-2.617L-14.903,-2.617C-17.109,-3.792 -19.252,-5.132 -21.252,-6.39C-26.405,-9.667 -31.434,-13.027 -36.792,-15.995C-49.346,-22.962 -61.919,-26.94 -75.75,-28.115M-77.81,-2.617L-77.81,-28.28C-80.058,-28.424 -82.325,-28.486 -84.653,-28.486L-121.467,-28.486L-121.467,-2.617L-77.81,-2.617ZM-180.417,49.736L-177.036,49.736C-177.736,47.366 -178.108,44.851 -178.108,42.233C-178.108,27.537 -166.194,15.623 -151.519,15.623C-143.913,15.623 -137.05,18.819 -132.205,23.93L-51.592,23.93C-51.036,23.93 -50.562,24.404 -50.562,24.961C-50.562,25.538 -51.036,25.991 -51.592,25.991L-130.433,25.991C-126.97,30.485 -124.909,36.133 -124.909,42.233C-124.909,44.851 -125.28,47.366 -125.98,49.736L-25.54,49.736C-25.931,48.396 -26.22,47.036 -26.405,45.614L-109.265,45.614C-109.821,45.614 -110.295,45.16 -110.295,44.584C-110.295,44.006 -109.821,43.553 -109.265,43.553L-26.59,43.553C-26.611,43.12 -26.611,42.687 -26.611,42.233C-26.611,27.537 -14.697,15.623 0,15.623C14.696,15.623 26.608,27.537 26.608,42.233C26.608,44.851 26.218,47.366 25.517,49.736L37.101,49.736C54.146,49.736 54.146,49.736 54.146,29.846C54.146,28.506 54.064,27.228 53.919,25.991L39.078,25.991C38.502,25.991 38.048,25.538 38.048,24.961C38.048,24.404 38.502,23.93 39.078,23.93L53.609,23.93C48.931,-1.566 13.335,-1.093 -6.185,-5.73C-19.83,-8.946 -39.987,-34.669 -84.653,-34.669L-157.146,-34.669C-163.371,-34.669 -180.829,-10.286 -180.829,-2.617C-180.829,16.139 -190.435,10.141 -190.435,21.065L-190.413,23.93L-181.386,23.93C-180.829,23.93 -180.354,24.404 -180.354,24.961C-180.354,25.538 -180.829,25.991 -181.386,25.991L-190.413,25.991C-190.372,47.572 -189.754,49.736 -180.417,49.736M0,19.746C12.407,19.746 22.487,29.825 22.487,42.233C22.487,54.662 12.407,64.721 0,64.721C-12.43,64.721 -22.488,54.662 -22.488,42.233C-22.488,29.825 -12.43,19.746 0,19.746" style="fill:rgb(239,250,255);"/>
    </g>
</svg>
