<?xml version="1.0" encoding="UTF-8" standalone="no"?>
<!DOCTYPE svg PUBLIC "-//W3C//DTD SVG 1.1//EN" "http://www.w3.org/Graphics/SVG/1.1/DTD/svg11.dtd">
<svg width="100%" height="100%" viewBox="0 0 125 55" version="1.1" xmlns="http://www.w3.org/2000/svg" xmlns:xlink="http://www.w3.org/1999/xlink" xml:space="preserve" xmlns:serif="http://www.serif.com/" style="fill-rule:evenodd;clip-rule:evenodd;stroke-linejoin:round;stroke-miterlimit:2;">
    <g transform="matrix(0.467004,0,0,0.467004,102.798,17.825)">
        <path d="M0,39.597C6.741,39.597 12.182,45.059 12.182,51.779C12.182,58.497 6.741,63.96 0,63.96C-6.719,63.96 -12.161,58.497 -12.161,51.779C-12.161,45.059 -6.719,39.597 0,39.597M-172.768,39.597C-166.048,39.597 -160.586,45.059 -160.586,51.779C-160.586,58.497 -166.048,63.96 -172.768,63.96C-179.488,63.96 -184.95,58.497 -184.95,51.779C-184.95,45.059 -179.488,39.597 -172.768,39.597M-49.282,-26.403L-49.282,-0.246L-5.895,-0.246C-11.397,-5.934 -16.839,-11.521 -23.374,-16.22C-31.33,-21.97 -39.76,-25.537 -49.282,-26.403M-105.409,-26.609L-105.409,-0.246L-51.344,-0.246L-51.344,-26.547C-52.209,-26.588 -53.054,-26.609 -53.92,-26.609L-105.409,-26.609ZM-161.514,-26.629L-161.514,-0.246L-107.47,-0.246L-107.47,-26.609L-154.836,-26.609C-157.062,-26.609 -159.288,-26.629 -161.514,-26.629M-163.576,-0.246L-163.576,-26.649L-170.789,-26.649C-174.788,-26.629 -178.828,-26.588 -182.806,-26.258C-186.104,-25.99 -191.875,-25.372 -194.349,-22.857C-196.678,-20.528 -196.904,-15.642 -196.904,-12.592L-196.904,-0.246L-163.576,-0.246ZM-214.692,56.828L-198.883,56.828C-199.213,55.201 -199.378,53.509 -199.378,51.779C-199.378,37.083 -187.464,25.169 -172.768,25.169C-165.863,25.169 -159.576,27.807 -154.836,32.115L-62.165,32.115C-61.608,32.115 -61.134,32.589 -61.134,33.145C-61.134,33.722 -61.608,34.176 -62.165,34.176L-152.816,34.176C-148.673,38.876 -146.158,45.038 -146.158,51.779C-146.158,53.509 -146.323,55.201 -146.632,56.828L-26.115,56.828C-26.383,55.489 -26.527,54.108 -26.589,52.705L-128.865,52.705C-129.421,52.705 -129.896,52.252 -129.896,51.675C-129.896,51.118 -129.421,50.644 -128.865,50.644L-26.568,50.644C-25.971,36.485 -14.304,25.169 0,25.169C14.697,25.169 26.61,37.083 26.61,51.779C26.61,53.509 26.445,55.179 26.136,56.807C42.275,56.581 42.11,53.82 42.11,42.215C42.11,39.432 41.925,36.731 41.554,34.176L32.608,34.176C32.032,34.176 31.578,33.722 31.578,33.145C31.578,32.589 32.032,32.115 32.608,32.115L41.183,32.115C38.132,16.78 27.126,5.856 2.742,-0.246C-9.708,-12.84 -25.929,-32.792 -53.92,-32.792L-162.194,-32.792C-196.987,-32.792 -210.446,-34.669 -210.446,-12.592L-210.446,32.115L-200.182,32.115C-199.604,32.115 -199.151,32.589 -199.151,33.145C-199.151,33.722 -199.604,34.176 -200.182,34.176L-210.446,34.176C-210.446,37.227 -214.692,40.277 -214.692,43.327L-214.692,56.828ZM-172.768,29.29C-160.339,29.29 -150.28,39.37 -150.28,51.779C-150.28,64.187 -160.339,74.266 -172.768,74.266C-185.176,74.266 -195.255,64.187 -195.255,51.779C-195.255,39.37 -185.176,29.29 -172.768,29.29M0,29.29C12.429,29.29 22.488,39.37 22.488,51.779C22.488,64.187 12.429,74.266 0,74.266C-12.408,74.266 -22.466,64.187 -22.466,51.779C-22.466,39.37 -12.408,29.29 0,29.29" style="fill:rgb(239,250,255);"/>
    </g>
</svg>
