<?xml version="1.0" encoding="UTF-8" standalone="no"?>
<!DOCTYPE svg PUBLIC "-//W3C//DTD SVG 1.1//EN" "http://www.w3.org/Graphics/SVG/1.1/DTD/svg11.dtd">
<svg width="100%" height="100%" viewBox="0 0 125 55" version="1.1" xmlns="http://www.w3.org/2000/svg" xmlns:xlink="http://www.w3.org/1999/xlink" xml:space="preserve" xmlns:serif="http://www.serif.com/" style="fill-rule:evenodd;clip-rule:evenodd;stroke-linejoin:round;stroke-miterlimit:2;">
    <g transform="matrix(0.452753,0,0,0.452753,59.733,37.8821)">
        <path d="M0,-46.089L53.817,-46.089C46.665,-53.405 38.647,-61.279 30.012,-65.897C21.169,-70.637 11.791,-71.936 1.855,-71.936L0,-71.936L0,-46.089ZM-73.068,-46.089L-2.061,-46.089L-2.061,-71.936L-73.068,-71.936L-73.068,-46.089ZM-82.035,-71.936C-85.827,-71.936 -92.671,-72.204 -96.092,-70.451C-98.896,-69.029 -100.482,-65.732 -101.574,-62.949C-103.553,-57.941 -104.853,-51.901 -105.82,-46.089L-75.13,-46.089L-75.13,-71.936L-82.035,-71.936ZM-74.161,-2.392C-67.441,-2.392 -61.979,3.05 -61.979,9.769C-61.979,16.51 -67.441,21.951 -74.161,21.951C-80.901,21.951 -86.343,16.51 -86.343,9.769C-86.343,3.05 -80.901,-2.392 -74.161,-2.392M-74.161,-12.697C-61.753,-12.697 -51.674,-2.639 -51.674,9.769C-51.674,22.198 -61.753,32.257 -74.161,32.257C-86.59,32.257 -96.648,22.198 -96.648,9.769C-96.648,-2.639 -86.59,-12.697 -74.161,-12.697M100.792,-2.392C107.512,-2.392 112.973,3.05 112.973,9.769C112.973,16.51 107.512,21.951 100.792,21.951C94.052,21.951 88.61,16.51 88.61,9.769C88.61,3.05 94.052,-2.392 100.792,-2.392M100.792,-12.697C113.201,-12.697 123.28,-2.639 123.28,9.769C123.28,22.198 113.201,32.257 100.792,32.257C88.363,32.257 78.305,22.198 78.305,9.769C78.305,-2.639 88.363,-12.697 100.792,-12.697M-89.661,-78.119L1.855,-78.119C31.042,-78.119 41.986,-66.969 62.455,-46.089C121.444,-46.089 139.893,-43.656 139.893,-13.647L139.893,-12.697L128.763,-12.697C128.206,-12.697 127.731,-12.244 127.731,-11.667C127.731,-11.11 128.206,-10.637 128.763,-10.637L139.852,-10.637C139.356,4.039 135.069,10.368 127.195,13.087C127.319,11.996 127.401,10.902 127.401,9.769C127.401,-4.906 115.489,-16.82 100.792,-16.82C86.364,-16.82 74.636,-5.36 74.203,8.944L-37.019,8.944C-37.595,8.944 -38.05,9.419 -38.05,9.975C-38.05,10.553 -37.595,11.006 -37.019,11.006L74.203,11.006C74.265,12.407 74.45,13.789 74.719,15.129L-48.108,15.129C-47.736,13.397 -47.551,11.603 -47.551,9.769C-47.551,1.565 -51.282,-5.772 -57.115,-10.637L32.011,-10.637C32.567,-10.637 33.042,-11.11 33.042,-11.667C33.042,-12.244 32.567,-12.697 32.011,-12.697L-59.938,-12.697C-64.062,-15.316 -68.926,-16.82 -74.161,-16.82C-88.857,-16.82 -100.771,-4.906 -100.771,9.769C-100.771,11.603 -100.585,13.397 -100.235,15.129L-100.709,15.129C-105.079,15.129 -124.64,18.097 -127.36,-10.637L-106.15,-10.637C-105.573,-10.637 -105.12,-11.11 -105.12,-11.667C-105.12,-12.244 -105.573,-12.697 -106.15,-12.697L-127.524,-12.697C-127.627,-14.284 -127.67,-15.955 -127.67,-17.707C-127.67,-31.455 -121.691,-32.464 -120.805,-38.896C-115.24,-78.346 -108.294,-78.119 -89.661,-78.119" style="fill:rgb(239,250,255);"/>
    </g>
</svg>
