<?xml version="1.0" encoding="UTF-8" standalone="no"?>
<!DOCTYPE svg PUBLIC "-//W3C//DTD SVG 1.1//EN" "http://www.w3.org/Graphics/SVG/1.1/DTD/svg11.dtd">
<svg width="100%" height="100%" viewBox="0 0 125 55" version="1.1" xmlns="http://www.w3.org/2000/svg" xmlns:xlink="http://www.w3.org/1999/xlink" xml:space="preserve" xmlns:serif="http://www.serif.com/" style="fill-rule:evenodd;clip-rule:evenodd;stroke-linejoin:round;stroke-miterlimit:2;">
    <g transform="matrix(0.461457,0,0,0.461457,78.6651,45.6048)">
        <path d="M0,-78.468L-5.112,-59.403L25.538,-59.403C18.241,-65.936 10.326,-72.904 2.144,-77.356C1.422,-77.746 0.722,-78.117 0,-78.468M-56.229,-87.022L-56.229,-59.403L-7.234,-59.403L-1.896,-79.334C-9.255,-82.612 -16.983,-84.178 -25.064,-85.167C-32.34,-86.073 -39.719,-86.487 -47.036,-86.754C-50.107,-86.878 -53.158,-86.96 -56.229,-87.022M-58.291,-59.403L-58.291,-87.063C-64.618,-87.166 -70.967,-87.207 -77.295,-87.207C-78.346,-86.63 -79.995,-84.239 -80.53,-83.353C-82.406,-80.365 -83.891,-76.881 -85.023,-73.542C-86.467,-69.379 -87.909,-63.834 -87.909,-59.403L-58.291,-59.403ZM-123.815,-19.744C-117.096,-19.744 -111.633,-14.283 -111.633,-7.564C-111.633,-0.844 -117.096,4.618 -123.815,4.618C-130.535,4.618 -135.997,-0.844 -135.997,-7.564C-135.997,-14.283 -130.535,-19.744 -123.815,-19.744M-123.815,-30.051C-111.386,-30.051 -101.328,-19.972 -101.328,-7.564C-101.328,4.845 -111.386,14.924 -123.815,14.924C-136.225,14.924 -146.303,4.845 -146.303,-7.564C-146.303,-19.972 -136.225,-30.051 -123.815,-30.051M51.138,-19.744C57.857,-19.744 63.319,-14.283 63.319,-7.564C63.319,-0.844 57.857,4.618 51.138,4.618C44.418,4.618 38.957,-0.844 38.957,-7.564C38.957,-14.283 44.418,-19.744 51.138,-19.744M51.138,-30.051C63.566,-30.051 73.626,-19.972 73.626,-7.564C73.626,4.845 63.566,14.924 51.138,14.924C38.729,14.924 28.65,4.845 28.65,-7.564C28.65,-19.972 38.729,-30.051 51.138,-30.051M34.813,-59.403C2.329,-88.217 -1.505,-93.392 -77.604,-93.392C-85.704,-93.392 -94.093,-70.718 -94.093,-59.403L-159.865,-59.403C-168.419,-59.403 -168.812,-59.505 -168.812,-52.168L-168.812,-29.021L-155.124,-29.021C-154.548,-29.021 -154.094,-28.546 -154.094,-27.99C-154.094,-27.413 -154.548,-26.959 -155.124,-26.959L-168.812,-26.959L-168.812,-7.564L-150.425,-7.564C-150.425,-22.259 -138.512,-34.173 -123.815,-34.173C-117.92,-34.173 -112.479,-32.257 -108.067,-29.021L-14.408,-29.021C-13.851,-29.021 -13.377,-28.546 -13.377,-27.99C-13.377,-27.413 -13.851,-26.959 -14.408,-26.959L-105.594,-26.959C-100.441,-22.095 -97.206,-15.211 -97.206,-7.564L24.528,-7.564C24.528,-8.965 24.652,-10.346 24.858,-11.685L-80.675,-11.685C-81.231,-11.685 -81.706,-12.139 -81.706,-12.716C-81.706,-13.273 -81.231,-13.747 -80.675,-13.747L24.858,-13.747C24.981,-13.747 25.126,-13.727 25.25,-13.665C27.99,-25.413 38.544,-34.173 51.138,-34.173C65.792,-34.173 77.686,-22.322 77.747,-7.667C94.547,-8.224 98.01,-11.418 98.627,-26.959L86.219,-26.959C85.642,-26.959 85.188,-27.413 85.188,-27.99C85.188,-28.546 85.642,-29.021 86.219,-29.021L98.689,-29.021C98.751,-30.855 98.751,-32.833 98.751,-34.998C98.751,-55.342 77.355,-59.403 34.813,-59.403" style="fill:rgb(239,250,255);"/>
    </g>
</svg>
